<svg xmlns="http://www.w3.org/2000/svg" viewBox="0 0 240 240" width="100%" height="100%">
  <defs>
    <linearGradient id="bubbleFill" x1="0%" y1="0%" x2="0%" y2="100%">
      <stop offset="0%" stop-color="#F6FBFF" />
      <stop offset="100%" stop-color="#D9EFFF" />
    </linearGradient>
    
    <linearGradient id="darkCross" x1="0%" y1="0%" x2="100%" y2="100%">
      <stop offset="0%" stop-color="#2770C8" />
      <stop offset="100%" stop-color="#154E9B" />
    </linearGradient>
    
    <linearGradient id="lightCross" x1="0%" y1="0%" x2="100%" y2="100%">
      <stop offset="0%" stop-color="#5CC5FA" />
      <stop offset="100%" stop-color="#2CA5F3" />
    </linearGradient>
    
    <linearGradient id="bubbleStroke" x1="0%" y1="0%" x2="0%" y2="100%">
      <stop offset="0%" stop-color="#4AC2FF" />
      <stop offset="100%" stop-color="#2DA7F4" />
    </linearGradient>
  </defs>

  <path d="M 45 80
           A 35 35 0 0 1 80 45
           H 160
           A 35 35 0 0 1 195 80
           V 140
           A 35 35 0 0 1 160 175
           H 105
           L 45 215
           Z"
        fill="url(#bubbleFill)"
        stroke="url(#bubbleStroke)"
        stroke-width="20"
        stroke-linejoin="round" />

  <path d="M 74 124
           A 14 14 0 0 1 74 96
           L 106 96
           L 106 64
           A 14 14 0 0 1 134 64
           L 134 96
           L 106 124
           Z"
        fill="url(#darkCross)" 
        stroke="url(#darkCross)"
        stroke-width="0.5" />

  <path d="M 166 96
           A 14 14 0 0 1 166 124
           L 134 124
           L 134 156
           A 14 14 0 0 1 106 156
           L 106 124
           L 134 96
           Z"
        fill="url(#lightCross)" />
</svg>
